# xmcd CD database file
#
# Track frame offsets:
#	150
#	30864
#	52207
#	82525
#	121583
#	144671
#	174048
#	182358
#	195398
#	226074
#	251310
#
# Disc length: 3745 seconds
#
# Revision: 0
# Processed by: cddbd v1.5.2PL0 Copyright (c) Steve Scherf et al.
# Submitted via: CDex 1.70beta2
#
DISCID=6e0e9f0b
DTITLE=Stan Getz and Bill Evans - Saxo and Piano
DYEAR=1900
DGENRE=Jazz
TTITLE0=Night and Day
TTITLE1=But Beautiful
TTITLE2=Funkallero
TTITLE3=My Heart Stood Still
TTITLE4=Melinda
TTITLE5=Grandfather's Waltz
TTITLE6=Carpetbagger's Theme (Previously Unrelese)
TTITLE7=Wnew (Theme Song) (Previously Unrelese)
TTITLE8=My Heart Stood Still (Previously Unrelese)
TTITLE9=Grandfather's Waltz (Previously Unrelese)
TTITLE10=Night and Day (Previously Unrelese)
EXTD=
EXTT0=
EXTT1=
EXTT2=
EXTT3=
EXTT4=
EXTT5=
EXTT6=
EXTT7=
EXTT8=
EXTT9=
EXTT10=
PLAYORDER=
